<svg width="250" height="238" viewBox="0 0 250 238" fill="none" xmlns="http://www.w3.org/2000/svg">
<path d="M37.5 237.024C27.0833 237.024 18.2292 233.568 10.9375 226.654C3.64583 219.741 0 211.347 0 201.471V35.5536C0 25.6776 3.64583 17.283 10.9375 10.3698C18.2292 3.4566 27.0833 0 37.5 0H212.5C222.917 0 231.771 3.4566 239.062 10.3698C246.354 17.283 250 25.6776 250 35.5536V201.471C250 211.347 246.354 219.741 239.062 226.654C231.771 233.568 222.917 237.024 212.5 237.024H37.5ZM37.5 213.322H212.5C216.042 213.322 219.01 212.186 221.406 209.915C223.802 207.643 225 204.828 225 201.471V35.5536C225 32.1958 223.802 29.3811 221.406 27.1096C219.01 24.8382 216.042 23.7024 212.5 23.7024H37.5C33.9583 23.7024 30.9896 24.8382 28.5938 27.1096C26.1979 29.3811 25 32.1958 25 35.5536V201.471C25 204.828 26.1979 207.643 28.5938 209.915C30.9896 212.186 33.9583 213.322 37.5 213.322ZM50 189.619L100 142.215L122.5 163.25L150 130.363L200 189.619H50ZM75 94.8097C68.125 94.8097 62.2396 92.4888 57.3438 87.8471C52.4479 83.2054 50 77.6254 50 71.1073C50 64.5891 52.4479 59.0092 57.3438 54.3674C62.2396 49.7257 68.125 47.4048 75 47.4048C81.875 47.4048 87.7604 49.7257 92.6562 54.3674C97.5521 59.0092 100 64.5891 100 71.1073C100 77.6254 97.5521 83.2054 92.6562 87.8471C87.7604 92.4888 81.875 94.8097 75 94.8097Z" fill="white"/>
</svg>
