<svg width="21" height="19" viewBox="0 0 21 19" fill="none" xmlns="http://www.w3.org/2000/svg">
<path d="M10.8527 18.6659L9.40266 17.3659C7.71933 15.8493 6.32766 14.5409 5.22766 13.4409C4.12766 12.3409 3.25266 11.3533 2.60266 10.4779C1.95266 9.60325 1.49866 8.79925 1.24066 8.06592C0.981994 7.33258 0.852661 6.58258 0.852661 5.81592C0.852661 4.24925 1.37766 2.94092 2.42766 1.89092C3.47766 0.840918 4.78599 0.315918 6.35266 0.315918C7.21933 0.315918 8.04433 0.499251 8.82766 0.865918C9.61099 1.23258 10.286 1.74925 10.8527 2.41592C11.4193 1.74925 12.0943 1.23258 12.8777 0.865918C13.661 0.499251 14.486 0.315918 15.3527 0.315918C16.9193 0.315918 18.2277 0.840918 19.2777 1.89092C20.3277 2.94092 20.8527 4.24925 20.8527 5.81592C20.8527 6.58258 20.7237 7.33258 20.4657 8.06592C20.207 8.79925 19.7527 9.60325 19.1027 10.4779C18.4527 11.3533 17.5777 12.3409 16.4777 13.4409C15.3777 14.5409 13.986 15.8493 12.3027 17.3659L10.8527 18.6659Z" fill="#FFE34F"/>
</svg>
