<svg width="24" height="24" viewBox="0 0 24 24" fill="none" xmlns="http://www.w3.org/2000/svg">
<mask id="mask0_207_133" style="mask-type:alpha" maskUnits="userSpaceOnUse" x="0" y="0" width="24" height="24">
<rect width="24" height="24" fill="#D9D9D9"/>
</mask>
<g mask="url(#mask0_207_133)">
<path d="M19.7999 22.6L16.7749 19.575C16.3582 19.8417 15.9166 20.0708 15.4499 20.2625C14.9832 20.4542 14.4999 20.6083 13.9999 20.725V18.675C14.2332 18.5917 14.4624 18.5083 14.6874 18.425C14.9124 18.3417 15.1249 18.2417 15.3249 18.125L11.9999 14.8V20L6.9999 15H2.9999V9H6.1999L1.3999 4.2L2.7999 2.8L21.1999 21.2L19.7999 22.6ZM19.5999 16.8L18.1499 15.35C18.4332 14.8333 18.6457 14.2917 18.7874 13.725C18.9291 13.1583 18.9999 12.575 18.9999 11.975C18.9999 10.4083 18.5416 9.00834 17.6249 7.775C16.7082 6.54167 15.4999 5.70834 13.9999 5.275V3.225C16.0666 3.69167 17.7499 4.7375 19.0499 6.3625C20.3499 7.9875 20.9999 9.85834 20.9999 11.975C20.9999 12.8583 20.8791 13.7083 20.6374 14.525C20.3957 15.3417 20.0499 16.1 19.5999 16.8ZM16.2499 13.45L13.9999 11.2V7.95C14.7832 8.31667 15.3957 8.86667 15.8374 9.6C16.2791 10.3333 16.4999 11.1333 16.4999 12C16.4999 12.25 16.4791 12.4958 16.4374 12.7375C16.3957 12.9792 16.3332 13.2167 16.2499 13.45ZM11.9999 9.2L9.3999 6.6L11.9999 4V9.2ZM9.9999 15.15V12.8L8.1999 11H4.9999V13H7.8499L9.9999 15.15Z" fill="#A8A8A8"/>
</g>
</svg>
