<svg width="12" height="12" viewBox="0 0 12 12" fill="none" xmlns="http://www.w3.org/2000/svg">
<mask id="mask0_70_159" style="mask-type:alpha" maskUnits="userSpaceOnUse" x="0" y="0" width="12" height="12">
<rect width="12" height="12" fill="#D9D9D9"/>
</mask>
<g mask="url(#mask0_70_159)">
<path d="M8.05 6.65002L7.325 5.92502C7.4 5.53336 7.2875 5.16669 6.9875 4.82502C6.6875 4.48336 6.3 4.35002 5.825 4.42502L5.1 3.70002C5.24167 3.63336 5.38533 3.58336 5.531 3.55002C5.677 3.51669 5.83333 3.50002 6 3.50002C6.625 3.50002 7.15633 3.71869 7.594 4.15602C8.03133 4.59369 8.25 5.12502 8.25 5.75002C8.25 5.91669 8.23333 6.07302 8.2 6.21902C8.16667 6.36469 8.11667 6.50836 8.05 6.65002ZM9.65 8.22502L8.925 7.52502C9.24167 7.28336 9.523 7.01869 9.769 6.73102C10.0147 6.44369 10.225 6.11669 10.4 5.75002C9.98333 4.90836 9.38533 4.23952 8.606 3.74352C7.827 3.24786 6.95833 3.00002 6 3.00002C5.75833 3.00002 5.52083 3.01669 5.2875 3.05002C5.05417 3.08336 4.825 3.13336 4.6 3.20002L3.825 2.42502C4.16667 2.28336 4.51667 2.17702 4.875 2.10602C5.23333 2.03536 5.60833 2.00002 6 2.00002C7.25833 2.00002 8.37917 2.34786 9.3625 3.04352C10.3458 3.73952 11.0583 4.64169 11.5 5.75002C11.3083 6.24169 11.0563 6.69802 10.744 7.11902C10.4313 7.53969 10.0667 7.90836 9.65 8.22502ZM9.9 11.3L7.8 9.22502C7.50833 9.31669 7.21467 9.38553 6.919 9.43153C6.623 9.47719 6.31667 9.50002 6 9.50002C4.74167 9.50002 3.62083 9.15219 2.6375 8.45652C1.65417 7.76052 0.941667 6.85836 0.5 5.75002C0.675 5.30836 0.895833 4.89786 1.1625 4.51852C1.42917 4.13952 1.73333 3.80002 2.075 3.50002L0.7 2.10002L1.4 1.40002L10.6 10.6L9.9 11.3ZM2.775 4.20002C2.53333 4.41669 2.3125 4.65419 2.1125 4.91252C1.9125 5.17086 1.74167 5.45002 1.6 5.75002C2.01667 6.59169 2.6145 7.26036 3.3935 7.75602C4.17283 8.25202 5.04167 8.50002 6 8.50002C6.16667 8.50002 6.32917 8.48969 6.4875 8.46902C6.64583 8.44802 6.80833 8.42502 6.975 8.40002L6.525 7.92502C6.43333 7.95002 6.34583 7.96869 6.2625 7.98102C6.17917 7.99369 6.09167 8.00002 6 8.00002C5.375 8.00002 4.84367 7.78136 4.406 7.34402C3.96867 6.90636 3.75 6.37502 3.75 5.75002C3.75 5.65836 3.75617 5.57086 3.7685 5.48752C3.78117 5.40419 3.8 5.31669 3.825 5.22502L2.775 4.20002Z" fill="white"/>
</g>
</svg>
