<svg width="36" height="36" viewBox="0 0 36 36" fill="none" xmlns="http://www.w3.org/2000/svg">
<mask id="mask0_1_208" style="mask-type:alpha" maskUnits="userSpaceOnUse" x="0" y="0" width="36" height="36">
<rect width="36" height="36" fill="#D9D9D9"/>
</mask>
<g mask="url(#mask0_1_208)">
<path d="M9.18747 25.9125C10.4875 24.9875 11.8625 24.2625 13.3125 23.7375C14.7625 23.2125 16.325 22.95 18 22.95C19.675 22.95 21.2375 23.2125 22.6875 23.7375C24.1375 24.2625 25.5125 24.9875 26.8125 25.9125C27.7625 24.8625 28.5065 23.6685 29.0445 22.3305C29.5815 20.9935 29.85 19.55 29.85 18C29.85 14.7 28.7 11.9 26.4 9.59999C24.1 7.29999 21.3 6.14999 18 6.14999C14.7 6.14999 11.9 7.29999 9.59997 9.59999C7.29997 11.9 6.14997 14.7 6.14997 18C6.14997 19.55 6.41897 20.9935 6.95697 22.3305C7.49397 23.6685 8.23747 24.8625 9.18747 25.9125ZM18 19.05C16.65 19.05 15.5125 18.5875 14.5875 17.6625C13.6625 16.7375 13.2 15.6 13.2 14.25C13.2 12.9 13.6625 11.7625 14.5875 10.8375C15.5125 9.91249 16.65 9.44999 18 9.44999C19.35 9.44999 20.4875 9.91249 21.4125 10.8375C22.3375 11.7625 22.8 12.9 22.8 14.25C22.8 15.6 22.3375 16.7375 21.4125 17.6625C20.4875 18.5875 19.35 19.05 18 19.05ZM18 31.95C16.075 31.95 14.2625 31.581 12.5625 30.843C10.8625 30.106 9.38747 29.1125 8.13747 27.8625C6.88747 26.6125 5.89397 25.1375 5.15697 23.4375C4.41897 21.7375 4.04997 19.925 4.04997 18C4.04997 16.075 4.41897 14.2625 5.15697 12.5625C5.89397 10.8625 6.88747 9.38749 8.13747 8.13749C9.38747 6.88749 10.8625 5.89349 12.5625 5.15549C14.2625 4.41849 16.075 4.04999 18 4.04999C19.925 4.04999 21.7375 4.41849 23.4375 5.15549C25.1375 5.89349 26.6125 6.88749 27.8625 8.13749C29.1125 9.38749 30.106 10.8625 30.843 12.5625C31.581 14.2625 31.95 16.075 31.95 18C31.95 19.925 31.581 21.7375 30.843 23.4375C30.106 25.1375 29.1125 26.6125 27.8625 27.8625C26.6125 29.1125 25.1375 30.106 23.4375 30.843C21.7375 31.581 19.925 31.95 18 31.95ZM18 29.85C19.325 29.85 20.606 29.6375 21.843 29.2125C23.081 28.7875 24.2 28.1875 25.2 27.4125C24.2 26.6625 23.1 26.081 21.9 25.668C20.7 25.256 19.4 25.05 18 25.05C16.6 25.05 15.294 25.25 14.082 25.65C12.869 26.05 11.775 26.6375 10.8 27.4125C11.8 28.1875 12.919 28.7875 14.157 29.2125C15.394 29.6375 16.675 29.85 18 29.85ZM18 16.95C18.75 16.95 19.3875 16.6875 19.9125 16.1625C20.4375 15.6375 20.7 15 20.7 14.25C20.7 13.5 20.4375 12.8625 19.9125 12.3375C19.3875 11.8125 18.75 11.55 18 11.55C17.25 11.55 16.6125 11.8125 16.0875 12.3375C15.5625 12.8625 15.3 13.5 15.3 14.25C15.3 15 15.5625 15.6375 16.0875 16.1625C16.6125 16.6875 17.25 16.95 18 16.95Z" fill="white"/>
</g>
</svg>
