<svg width="30" height="30" viewBox="0 0 30 30" fill="none" xmlns="http://www.w3.org/2000/svg">
<path d="M15 2.5C11.6848 2.5 8.50537 3.81696 6.16117 6.16117C3.81696 8.50537 2.5 11.6848 2.5 15C2.5 18.3152 3.81696 21.4946 6.16117 23.8388C8.50537 26.183 11.6848 27.5 15 27.5C18.3152 27.5 21.4946 26.183 23.8388 23.8388C26.183 21.4946 27.5 18.3152 27.5 15C27.5 11.6848 26.183 8.50537 23.8388 6.16117C21.4946 3.81696 18.3152 2.5 15 2.5Z" fill="#1976D2"/>
<path d="M22.4606 11.2756C22.4894 11.1813 22.5031 11.0938 22.4994 11.0156C22.49 10.7894 22.3344 10.625 21.9681 10.625H20.3319C19.9187 10.625 19.7281 10.875 19.6169 11.1256C19.6169 11.1256 18.5969 13.225 17.4213 14.6094C17.04 15.01 16.8463 15 16.64 15C16.5294 15 16.25 14.8662 16.25 14.4994V11.2587C16.25 10.825 16.1419 10.625 15.7925 10.625H12.8869C12.6325 10.625 12.5 10.825 12.5 11.0256C12.5 11.4425 13.0613 11.5425 13.125 12.7106V14.975C13.125 15.525 13.0294 15.625 12.8231 15.625C12.2669 15.625 11.1719 13.75 10.4387 11.2925C10.28 10.8088 10.1212 10.625 9.70813 10.625H8.05625C7.57938 10.625 7.5 10.8588 7.5 11.1088C7.5 11.5594 7.875 13.9956 9.92188 16.7969C11.4062 18.8281 13.3619 20 15.0931 20C16.1419 20 16.2494 19.7331 16.2494 19.3162V17.4587C16.25 16.9581 16.3644 16.875 16.6981 16.875C16.9362 16.875 17.4219 17.0312 18.3594 18.125C19.4406 19.3862 19.6369 20 20.2569 20H21.8931C22.2731 20 22.4913 19.8406 22.5 19.5312C22.5019 19.4525 22.4906 19.3644 22.465 19.2663C22.3438 18.9062 21.7875 18.0262 21.0938 17.1875C20.7094 16.7231 20.33 16.2631 20.1556 16.0131C20.0388 15.85 19.9944 15.735 20 15.625C20.0056 15.5094 20.0656 15.3994 20.1556 15.2456C20.1394 15.2456 22.2544 12.2763 22.4606 11.2756Z" fill="white"/>
</svg>
