<svg width="20" height="20" viewBox="0 0 20 20" fill="none" xmlns="http://www.w3.org/2000/svg">
<path d="M10 0C4.4775 0 0 4.4775 0 10C0 15.5225 4.4775 20 10 20C15.5225 20 20 15.5225 20 10C20 4.4775 15.5225 0 10 0ZM15.3008 13.3058L13.7442 13.3275C13.7442 13.3275 13.4083 13.3933 12.9692 13.09C12.3867 12.69 11.8375 11.6492 11.4092 11.7842C10.975 11.9225 10.9883 12.8592 10.9883 12.8592C10.9883 12.8592 10.9917 13.0242 10.8925 13.1317C10.785 13.2475 10.5742 13.2358 10.5742 13.2358H9.87666C9.87666 13.2358 8.33833 13.3633 6.9825 11.95C5.50583 10.4092 4.20083 7.36833 4.20083 7.36833C4.20083 7.36833 4.12417 7.17666 4.20583 7.07833C4.29833 6.97 4.5475 6.96666 4.5475 6.96666L6.21416 6.95833C6.21416 6.95833 6.37083 6.98583 6.48416 7.06916C6.57666 7.1375 6.62916 7.26583 6.62916 7.26583C6.62916 7.26583 6.89833 7.94833 7.25583 8.56666C7.9525 9.77166 8.27583 10.0358 8.5125 9.90666C8.8575 9.71833 8.75416 8.20333 8.75416 8.20333C8.75416 8.20333 8.76083 7.65333 8.58083 7.40833C8.44083 7.2175 8.1775 7.16083 8.0625 7.14666C7.96833 7.13416 8.12166 6.91583 8.32166 6.8175C8.62166 6.67083 9.15166 6.6625 9.7775 6.66833C10.265 6.67333 10.4058 6.70333 10.5958 6.75C11.1708 6.88916 10.9758 7.42583 10.9758 8.71333C10.9758 9.12583 10.9017 9.70583 11.1983 9.89666C11.3267 9.97916 11.6392 9.90916 12.4183 8.58083C12.7892 7.95083 13.0667 7.21083 13.0667 7.21083C13.0667 7.21083 13.1275 7.07916 13.2217 7.0225C13.3183 6.96416 13.4483 6.9825 13.4483 6.9825L15.2025 6.97166C15.2025 6.97166 15.7292 6.90833 15.815 7.1475C15.905 7.3975 15.6183 7.98166 14.9017 8.9375C13.725 10.5075 13.5942 10.3617 14.5717 11.27C15.505 12.1375 15.6975 12.5592 15.73 12.6125C16.1158 13.255 15.3008 13.3058 15.3008 13.3058Z" fill="#A8A8A8"/>
</svg>
