<svg width="30" height="30" viewBox="0 0 30 30" fill="none" xmlns="http://www.w3.org/2000/svg">
<path d="M15 27.5C21.9036 27.5 27.5 21.9036 27.5 15C27.5 8.09644 21.9036 2.5 15 2.5C8.09644 2.5 2.5 8.09644 2.5 15C2.5 21.9036 8.09644 27.5 15 27.5Z" fill="#FF0000"/>
<path fill-rule="evenodd" clip-rule="evenodd" d="M22.0628 10.2363C22.3123 10.4857 22.492 10.7962 22.5841 11.1367C23.1147 13.2723 22.9921 16.6452 22.5944 18.8633C22.5023 19.2038 22.3226 19.5143 22.0731 19.7637C21.8237 20.0131 21.5133 20.1929 21.1728 20.285C19.9262 20.625 14.909 20.625 14.909 20.625C14.909 20.625 9.89182 20.625 8.64526 20.285C8.30476 20.1929 7.99432 20.0131 7.74488 19.7637C7.49544 19.5143 7.31569 19.2038 7.22357 18.8633C6.68988 16.7369 6.83619 13.3619 7.21326 11.147C7.30538 10.8064 7.48513 10.496 7.73457 10.2466C7.98401 9.99713 8.29444 9.81744 8.63494 9.72525C9.88151 9.38531 14.8987 9.375 14.8987 9.375C14.8987 9.375 19.9159 9.375 21.1624 9.715C21.5029 9.80712 21.8134 9.98687 22.0628 10.2363ZM17.4639 15L13.3019 17.4107V12.5892L17.4639 15Z" fill="white"/>
</svg>
