<?xml version="1.0" encoding="UTF-8"?>
<svg id="_Слой_2" data-name="Слой 2" xmlns="http://www.w3.org/2000/svg" viewBox="0 0 1280 720">
  <defs>
    <style>
      .cls-1 {
        fill: #ffe34f;
      }

      .cls-2 {
        fill: #7f966a;
      }

      .cls-3 {
        fill: #909090;
      }

      .cls-4 {
        fill: #62736d;
      }

      .cls-5 {
        fill: #623b3a;
      }

      .cls-6 {
        fill: #79736f;
      }

      .cls-7 {
        fill: none;
        stroke: #8e8e8e;
        stroke-miterlimit: 10;
        stroke-width: 4px;
      }
    </style>
  </defs>
  <path class="cls-7" d="M0,105.55c420.21,44.62,194.07,81.3,194.07,81.3,0,0-191.84,26.73,10.52,60.3,202.36,33.57,517.3,83.72,517.3,83.72"/>
  <path class="cls-7" d="M737.87,333.49s396.8,83.99,542.13,77.91"/>
  <g>
    <ellipse class="cls-2" cx="724.7" cy="332.57" rx=".81" ry="2.75" transform="translate(236.45 962.97) rotate(-76.89)"/>
    <ellipse class="cls-5" cx="724.7" cy="331.97" rx=".71" ry="2.95" transform="translate(234.99 960.92) rotate(-76.71)"/>
    <ellipse class="cls-4" cx="724.59" cy="331.09" rx=".85" ry="3.52" transform="translate(270.41 985.59) rotate(-79.8)"/>
    <ellipse class="cls-6" cx="724.75" cy="330.24" rx=".72" ry="3.3" transform="translate(301.98 1005.21) rotate(-82.44)"/>
  </g>
  <g>
    <ellipse class="cls-2" cx="733.65" cy="331.73" rx=".83" ry="3.78" transform="translate(261.97 984.26) rotate(-78.47)"/>
    <ellipse class="cls-5" cx="733.62" cy="332.33" rx=".73" ry="4.05" transform="translate(258.1 982.35) rotate(-78.18)"/>
    <ellipse class="cls-4" cx="733.72" cy="333.23" rx=".87" ry="4.86" transform="translate(282.97 1001.22) rotate(-80.42)"/>
    <ellipse class="cls-6" cx="733.45" cy="334.07" rx=".73" ry="4.57" transform="translate(303.68 1015.87) rotate(-82.26)"/>
  </g>
  <g>
    <ellipse class="cls-3" cx="736.16" cy="334.46" rx="2.25" ry=".89" transform="translate(-34.13 88.59) rotate(-6.73)"/>
    <ellipse class="cls-3" cx="737.16" cy="335.36" rx="2.25" ry=".89" transform="translate(-5.55 658.23) rotate(-47.96)"/>
    <ellipse class="cls-3" cx="739.4" cy="332.07" rx="2.25" ry=".89" transform="translate(-2.37 658.8) rotate(-47.96)"/>
    <ellipse class="cls-3" cx="737.99" cy="332.07" rx="2.25" ry=".89" transform="translate(342.04 1037.85) rotate(-84.93)"/>
    <ellipse class="cls-3" cx="737.74" cy="335.33" rx=".89" ry="2.24"/>
  </g>
  <g>
    <ellipse class="cls-3" cx="723.35" cy="329.8" rx="2.19" ry=".87" transform="translate(-65.92 234.62) rotate(-17.63)"/>
    <ellipse class="cls-3" cx="722.22" cy="329.12" rx="2.19" ry=".87" transform="translate(67.04 777.09) rotate(-58.86)"/>
    <ellipse class="cls-3" cx="720.69" cy="332.69" rx="2.19" ry=".87" transform="translate(63.26 777.5) rotate(-58.86)"/>
    <ellipse class="cls-3" cx="722.04" cy="332.43" rx=".87" ry="2.19" transform="translate(-30.06 75.14) rotate(-5.84)"/>
    <ellipse class="cls-3" cx="721.67" cy="329.26" rx=".87" ry="2.18" transform="translate(-49.25 142.44) rotate(-10.9)"/>
  </g>
  <path class="cls-1" d="M820.64,294.73c18.56,9.35,27.46,24.93,29.17,45.15-.18,2.32-.36,4.64-.54,6.97-1.78,6.53-.65,10.03,.8,12.02,1.94,2.67,4.09,2.15,6.17,5.23,2.16,3.21,2.53,7.77,.88,11.42-.47,1.04-1.65,3.66-4.39,4.83-3.01,1.29-6.04,.04-8.25-.86-2.66-1.1-4.77-2.94-8.99-6.63-1.92-1.67-2.85-2.67-3.11-2.91-1.82-1.67-3.19-3.86-4.67-5.89-5.13-7.02-15.28-9.14-22.49-4.52-2.44,1.56-3.36,3.71-3,6.92,1.01,8.96-2.35,12.55-11.46,13.01-1.67,.08-3.35,.03-5.02,.06-8.51,.17-8.87-.1-6.28-7.98,1.15-3.5,.76-3.89,.56-4.17-1.67-2.34-9.82,2.41-12.71-.65-.61-.65-.8-1.45-.88-1.98,.03-.17,.08-.45,.11-.8,.17-2.04-.58-3.64-.79-4.12-.54-1.24-1.22-3.56-1.77-8.3-.42-.44-.85-.88-1.27-1.32-3.68-1.96-4.78-5.64-6.12-9.16,.13-.33,.07-.62-.17-.87-1.62-1.57-1.48-3.88-2.46-5.72-1.9-4.91-3.66-9.64-10.65-8.83-2.46,.28-4.55-2.3-6.84-3.53-2.87-4.42-4.23-8.64-1.15-13.89,1.7-2.89,2.09-6.84,2.14-10.32,.06-3.71,1.15-6.76,4.04-8.67,3.63-2.4,3.42-5.33,2.31-8.72-1.55-4.76-3.23-9.48-4.66-14.28-.72-2.41-.83-4.96-.2-7.45,.54-2.15,1.73-3.94,3.96-4.44,2.58-.58,3.96,1.41,4.69,3.31,2.52,6.62,4.74,13.36,7.16,20.02,.53,1.46,.5,3.74,2.73,3.66,2.35-.08,1.71-2.54,2.26-3.91,3.77-9.37,11.41-15.57,18.14-22.77,2.16,10.14,.06,19.38-4.19,28.32-.79,1.65-2.75,3.43-1.66,5.11,1.34,2.08,3.97,.77,5.78,.33,4.42-1.08,8.5-.72,12.78,.73,7.96,2.7,16.52,1.6,24.65,3.39,.97,.35,1.94,.7,2.91,1.05"/>
</svg>